<svg width="186" height="233" viewBox="0 0 186 233" fill="none" xmlns="http://www.w3.org/2000/svg">
<g clip-path="url(#clip0_74_85)">
<path d="M121.004 165.841L109.647 147.52C108.331 145.395 107.672 144.324 107.67 143.417C107.669 142.509 108.323 142.229 109.636 141.667L118.112 138.042C119.852 137.297 120.721 136.926 120.602 135.781C120.48 134.638 119.451 133.512 117.398 131.257L102.385 114.788C100.332 112.534 99.3034 111.407 99.1808 110.264C99.0626 109.119 99.9307 108.748 101.671 108.003L112.158 103.518C113.54 102.926 114.23 102.631 114.208 101.677C114.187 100.722 113.466 99.6401 112.025 97.4764L73.5812 39.7788C72.7883 38.5888 72.3881 37.9908 71.947 37.7438C71.506 37.4969 71.1265 37.6593 70.3675 37.9839L45.2547 48.7262C43.5491 49.4558 42.6941 49.8215 42.8057 50.9508C42.9172 52.0801 43.9208 53.2078 45.9202 55.4573L66.7281 78.8639C68.7275 81.1133 69.7311 82.241 69.8426 83.3703C69.9541 84.4996 69.0992 84.8654 67.3892 85.5968L62.5211 87.6792C60.6192 88.4928 59.6682 88.8995 59.8254 90.1113C59.9868 91.3212 61.1447 92.4477 63.4572 94.693L79.3519 110.137C81.6677 112.39 82.8222 113.508 82.9837 114.718C83.1408 115.93 82.1899 116.337 80.288 117.15L71.7034 120.822C69.7448 121.66 68.7676 122.078 68.9435 123.31C69.1194 124.541 70.3112 125.663 72.7035 127.902L118.665 170.928C123.757 175.692 126.297 178.071 126.787 177.009C127.273 175.949 125.182 172.58 121.004 165.841Z" fill="#FFD500"/>
</g>
<defs>
<clipPath id="clip0_74_85">
<rect width="113.867" height="204.502" fill="white" transform="matrix(-0.919414 0.393291 0.393291 0.919414 105 0)"/>
</clipPath>
</defs>
</svg>
