<svg width="163" height="163" viewBox="0 0 163 163" fill="none" xmlns="http://www.w3.org/2000/svg">
<g clip-path="url(#clip0_52_58)">
<ellipse cx="81.166" cy="81.4317" rx="49.71" ry="49.71" transform="rotate(-61.6742 81.166 81.4317)" fill="#FFD500"/>
<path d="M99.8606 64.5206C103.159 68.3683 105.22 73.1207 105.776 78.1577C106.333 83.1948 105.357 88.2825 102.978 92.7569C100.599 97.2314 96.9266 100.885 92.4397 103.24C87.9528 105.596 82.86 106.544 77.826 105.962C74.6368 105.676 74.8605 110.676 78.0296 110.957C83.9411 111.5 89.8812 110.284 95.1043 107.463C100.327 104.641 104.601 100.34 107.387 95.0985C110.174 89.857 111.351 83.909 110.769 78.0012C110.188 72.0934 107.874 66.4891 104.118 61.8917C102.111 59.4257 97.8207 62.0203 99.8606 64.5206Z" fill="black"/>
<path d="M66.4259 90.3074C68.0464 87.2596 66.8894 83.4753 63.8416 81.8547C60.7939 80.2342 57.0095 81.3912 55.389 84.439C53.7685 87.4867 54.9255 91.2711 57.9732 92.8916C61.021 94.5121 64.8053 93.3551 66.4259 90.3074Z" fill="black"/>
<path d="M80.51 63.8188C82.1305 60.7711 80.9735 56.9867 77.9258 55.3662C74.878 53.7457 71.0937 54.9027 69.4732 57.9504C67.8526 60.9982 69.0096 64.7826 72.0574 66.4031C75.1051 68.0236 78.8895 66.8666 80.51 63.8188Z" fill="black"/>
</g>
<defs>
<clipPath id="clip0_52_58">
<rect y="105.954" width="120" height="120" rx="30" transform="rotate(-62 0 105.954)" fill="white"/>
</clipPath>
</defs>
</svg>
