<svg width="325" height="248" viewBox="0 0 325 248" fill="none" xmlns="http://www.w3.org/2000/svg">
<path d="M206.004 24.9626L199.884 89.9968L287.873 121.266L208.401 128.514L244.622 199.622L171.27 141.836L119.504 181.675L125.624 116.64L37.6356 85.3714L117.108 78.1232L80.8858 7.01533L154.238 64.8013L206.004 24.9626Z" fill="#FFD500"/>
<path d="M116.059 90.6801L125.454 73.6607L132.051 77.3024L131.077 79.0674L126.854 76.7362L123.746 82.3673L127.17 84.2578L126.243 85.9387L122.818 84.0483L119.373 90.2888L123.639 92.6431L122.699 94.3451L116.059 90.6801ZM123.775 94.9392L132.244 87.9903L133.233 77.9545L135.439 79.1723L134.706 86.6081L140.377 81.8978L142.583 83.1155L134.43 89.4435L133.357 100.228L131.151 99.01L131.914 91.0705L125.982 96.1569L123.775 94.9392ZM139.334 103.774C138.129 103.109 137.33 102.338 136.936 101.463C136.556 100.595 136.468 99.6608 136.674 98.6594C136.893 97.6658 137.293 96.6437 137.873 95.5931L141.19 89.5837C141.824 88.4351 142.503 87.5031 143.227 86.7878C143.964 86.0803 144.79 85.677 145.704 85.5782C146.639 85.4731 147.709 85.753 148.913 86.4179C149.978 87.0055 150.71 87.6655 151.11 88.398C151.524 89.1381 151.663 89.9458 151.527 90.8212C151.405 91.7042 151.062 92.657 150.498 93.6796L149.755 95.0243L147.507 93.7834L148.168 92.5857C148.516 91.9553 148.786 91.3827 148.979 90.8678C149.194 90.3466 149.235 89.8756 149.101 89.4548C148.968 89.034 148.572 88.6419 147.914 88.2785C147.241 87.9074 146.67 87.7839 146.199 87.9079C145.737 88.018 145.309 88.3121 144.917 88.7903C144.547 89.2622 144.169 89.8483 143.782 90.5487L140.06 97.2934C139.588 98.1479 139.283 98.8659 139.145 99.4475C139.014 100.015 139.052 100.493 139.258 100.881C139.464 101.269 139.841 101.614 140.387 101.915C141.031 102.271 141.571 102.386 142.006 102.26C142.448 102.121 142.844 101.818 143.192 101.353C143.54 100.887 143.9 100.318 144.271 99.6456L144.967 98.3849L147.215 99.6259L146.52 100.887C145.947 101.923 145.315 102.771 144.622 103.43C143.937 104.076 143.162 104.452 142.299 104.56C141.443 104.654 140.454 104.392 139.334 103.774ZM146.196 107.315L155.591 90.2954L157.965 91.606L149.51 106.923L153.86 109.324L152.92 111.026L146.196 107.315ZM159.045 114.654C157.812 113.973 157.002 113.206 156.614 112.352C156.227 111.499 156.157 110.565 156.406 109.551C156.663 108.523 157.12 107.414 157.777 106.223L164.005 94.9399L166.274 96.1924L159.988 107.581C159.586 108.309 159.268 109.002 159.034 109.658C158.799 110.315 158.746 110.907 158.875 111.435C159.018 111.971 159.419 112.42 160.077 112.784C160.749 113.155 161.343 113.254 161.859 113.082C162.374 112.909 162.847 112.549 163.278 112.001C163.708 111.453 164.125 110.814 164.527 110.086L170.813 98.6976L173.061 99.9385L166.833 111.222C166.176 112.412 165.481 113.39 164.748 114.155C164.022 114.906 163.195 115.345 162.266 115.472C161.351 115.607 160.278 115.334 159.045 114.654ZM170.286 120.858C169.305 120.317 168.601 119.654 168.175 118.871C167.763 118.095 167.593 117.243 167.667 116.315C167.74 115.387 168.02 114.417 168.505 113.406L170.919 113.998C170.629 114.624 170.399 115.255 170.23 115.893C170.075 116.538 170.065 117.136 170.2 117.686C170.343 118.221 170.715 118.656 171.318 118.988C171.934 119.328 172.489 119.415 172.983 119.249C173.498 119.077 173.934 118.668 174.29 118.024C174.715 117.254 174.88 116.541 174.785 115.885C174.698 115.216 174.519 114.496 174.25 113.726L172.784 109.627C172.494 108.827 172.375 108.067 172.426 107.346C172.484 106.611 172.749 105.816 173.221 104.961C173.909 103.715 174.8 102.945 175.893 102.653C176.986 102.361 178.149 102.555 179.382 103.236C180.054 103.607 180.592 104.023 180.996 104.483C181.422 104.937 181.702 105.439 181.837 105.989C181.986 106.546 182.004 107.159 181.891 107.828C181.8 108.49 181.584 109.212 181.244 109.993L178.926 109.426C179.193 108.842 179.391 108.285 179.52 107.753C179.657 107.207 179.642 106.705 179.474 106.247C179.328 105.783 178.961 105.388 178.373 105.064C177.785 104.739 177.234 104.645 176.72 104.781C176.227 104.912 175.811 105.285 175.471 105.901C175.185 106.42 175.033 106.893 175.015 107.322C175.012 107.759 175.11 108.261 175.309 108.827L176.796 112.938C177.131 113.854 177.327 114.839 177.384 115.894C177.449 116.935 177.188 117.988 176.6 119.053C176.136 119.893 175.559 120.525 174.869 120.948C174.186 121.357 173.448 121.553 172.653 121.535C171.873 121.524 171.084 121.299 170.286 120.858ZM176.644 124.121L186.038 107.102L188.371 108.389L178.976 125.408L176.644 124.121ZM184.903 128.68L190.494 109.561L192.721 110.79L188.487 124.819L197.974 113.69L200.138 114.884L186.983 129.828L184.903 128.68ZM192.759 133.016L202.153 115.996L208.751 119.638L207.776 121.403L203.553 119.072L200.445 124.703L203.87 126.593L202.942 128.274L199.517 126.384L196.072 132.624L200.338 134.979L199.398 136.681L192.759 133.016Z" fill="#C7482A"/>
</svg>
